<svg width="15" height="15" viewBox="0 0 15 15" fill="none" xmlns="http://www.w3.org/2000/svg">
<g clip-path="url(#clip0_2_43)">
<path d="M14.0909 5.31852H13.5572L11.1676 0.811427C11.0539 0.596974 10.7878 0.515382 10.5734 0.628966C10.3589 0.742667 10.2773 1.00868 10.391 1.22314L12.5623 5.31846H2.96145L5.13281 1.22314C5.24651 1.00868 5.16483 0.742667 4.95038 0.628966C4.73596 0.515294 4.46991 0.596974 4.35621 0.811427L1.96658 5.31852H1.3691C0.741007 5.31852 0.230011 5.82951 0.230011 6.45761C0.230011 7.0857 0.741007 7.5967 1.3691 7.5967H1.40071C1.40168 7.60297 1.40241 7.60927 1.40353 7.61554L2.32005 12.7546C2.4924 13.7209 3.32991 14.4223 4.31148 14.4223H11.2122C12.1938 14.4223 13.0313 13.7209 13.2037 12.7546L14.1202 7.61554C14.1214 7.609 14.1221 7.60244 14.1231 7.59591C14.7364 7.57871 15.23 7.07489 15.23 6.45761C15.23 5.82948 14.719 5.31852 14.0909 5.31852ZM12.3384 12.6003C12.2409 13.1468 11.7673 13.5434 11.2123 13.5434H4.3115C3.75645 13.5434 3.28286 13.1468 3.18539 12.6003L2.29307 7.5967H13.2308L12.3384 12.6003ZM14.0909 6.71771H1.3691C1.22567 6.71771 1.10901 6.60105 1.10901 6.45761C1.10901 6.31417 1.22567 6.19748 1.3691 6.19748H14.0909C14.2343 6.19748 14.351 6.31414 14.351 6.45761C14.351 6.60105 14.2344 6.71771 14.0909 6.71771Z" fill="white"/>
<path d="M7.71103 8.20642C7.4683 8.20642 7.27155 8.40321 7.27155 8.6459V12.4941C7.27155 12.7368 7.46833 12.9336 7.71103 12.9336C7.95375 12.9336 8.15051 12.7368 8.15051 12.4941V8.6459C8.15051 8.40318 7.95375 8.20642 7.71103 8.20642Z" fill="white"/>
<path d="M6.21151 12.4211L5.56335 8.57295C5.52307 8.33357 5.29607 8.1722 5.05695 8.21254C4.8176 8.25285 4.65626 8.47958 4.69657 8.71894L5.34477 12.5671C5.38092 12.7818 5.56698 12.9337 5.7776 12.9337C5.80186 12.9337 5.82644 12.9317 5.8511 12.9275C6.09049 12.8872 6.25183 12.6605 6.21151 12.4211Z" fill="white"/>
<path d="M10.3344 8.21254C10.0953 8.17244 9.86834 8.33357 9.82797 8.57295L9.17981 12.4211C9.13953 12.6605 9.30087 12.8872 9.54022 12.9275C9.56492 12.9317 9.58947 12.9337 9.61373 12.9337C9.82437 12.9337 10.0104 12.7818 10.0466 12.5671L10.6947 8.71894C10.7351 8.47958 10.5737 8.25286 10.3344 8.21254Z" fill="white"/>
</g>
<defs>
<clipPath id="clip0_2_43">
<rect width="13.95" height="15" fill="white" transform="translate(0.230011)"/>
</clipPath>
</defs>
</svg>
