<svg width="93" height="24" viewBox="0 0 93 24" fill="none" xmlns="http://www.w3.org/2000/svg">
<path fill-rule="evenodd" clip-rule="evenodd" d="M12 13.68C7.81071 13.68 4.3081 16.6772 3.52399 20.64H12C16.6694 20.64 20.4858 16.9163 20.6354 12.2824C21.7973 11.3343 22.8011 10.1993 23.6005 8.92383C23.8611 9.90584 24 10.9369 24 11.9998C24 18.6167 18.6167 24 12 24H0V22.32C0.000131 15.7032 5.38341 10.32 12 10.32C16.1893 10.32 19.6919 7.32277 20.476 3.36H12C7.33055 3.36 3.51421 7.08367 3.36456 11.7176C2.20266 12.6657 1.1989 13.8007 0.399536 15.0762C0.138916 14.0942 0 13.0631 0 12.0002C0 5.38333 5.38333 0 12 0H24V1.68C23.9999 8.2968 18.6166 13.68 12 13.68ZM85.0588 19.7647C80.9654 19.7647 77.647 16.4463 77.647 12.3529C77.647 8.25954 80.9654 4.94118 85.0588 4.94118C89.1522 4.94118 92.4706 8.25954 92.4706 12.3529C92.4706 16.4463 89.1522 19.7647 85.0588 19.7647ZM85.0588 16.5882C87.3979 16.5882 89.2941 14.692 89.2941 12.3529C89.2941 10.0139 87.3979 8.11765 85.0588 8.11765C82.7197 8.11765 80.8235 10.0139 80.8235 12.3529C80.8235 14.692 82.7197 16.5882 85.0588 16.5882ZM60.8178 13.7647H52.8292C53.4106 15.4097 54.9795 16.5882 56.8235 16.5882C57.9832 16.5882 59.0339 16.1222 59.7988 15.3672L62.5556 17.052C61.1963 18.7081 59.1333 19.7647 56.8235 19.7647C52.7301 19.7647 49.4117 16.4463 49.4117 12.3529C49.4117 8.25954 52.7301 4.94118 56.8235 4.94118C60.917 4.94118 64.2353 8.25954 64.2353 12.3529C64.2353 12.8357 64.1891 13.3077 64.101 13.7647H60.8178ZM60.6748 10.5882C60.0056 9.13021 58.5328 8.11765 56.8235 8.11765C55.1143 8.11765 53.6415 9.13021 52.9723 10.5882H60.6748ZM45.8823 5.29412L37.7496 16.2353H45.8823V19.4118H31.0588L39.2647 8.47059H31.0588V5.29412H45.8823ZM70.9412 6.26967C72.1417 5.43227 73.6017 4.94118 75.1765 4.94118C75.2948 4.94118 75.4125 4.94395 75.5294 4.94943V8.13214C75.413 8.12254 75.2953 8.11765 75.1765 8.11765C72.8374 8.11765 70.9412 10.0139 70.9412 12.3529C70.9412 12.4718 70.9461 12.5895 70.9557 12.7059H70.9412V19.4118H67.7647V5.29412H70.9412V6.26967Z" fill="black"/>
</svg>
