<svg width="14" height="14" viewBox="0 0 14 14" fill="none" xmlns="http://www.w3.org/2000/svg">
<path d="M13.6 12.2799L12.28 13.5999L8.32001 9.63995V8.31995H9.64001L13.6 12.2799Z" fill="white"/>
<path d="M5.02001 9.63996C2.44601 9.63996 0.400009 7.59396 0.400009 5.01996C0.400009 2.44596 2.44601 0.399963 5.02001 0.399963C7.59401 0.399963 9.64001 2.44596 9.64001 5.01996C9.64001 7.59396 7.59401 9.63996 5.02001 9.63996ZM5.02001 1.71996C3.17201 1.71996 1.72001 3.17196 1.72001 5.01996C1.72001 6.86796 3.17201 8.31996 5.02001 8.31996C6.86801 8.31996 8.32001 6.86796 8.32001 5.01996C8.32001 3.17196 6.86801 1.71996 5.02001 1.71996Z" fill="white"/>
<path d="M7.4117 7.9248L7.87845 7.45818L9.51164 9.09182L9.04489 9.55845L7.4117 7.9248Z" fill="white"/>
</svg>
